User Type,Username,Date,Text
,BDSMers,2011-06-19T19:33Z,"would be nice to know at least something about the file.
sorry"
,hadza2390,2011-06-19T22:09Z,"http://www.imdb.com/title/tt1753753/

DVDrip, hardcoded eng subs.
a-10
v-10
m-good

Format                           : AVI
Format/Info                      : Audio Video Interleave
File size                        : 673 MiB
Duration                         : 1h 30mn
Overall bit rate                 : 1 034 Kbps
Movie name                       : CFDV023.Title2.DVDRip
Writing application              : Lavf52.78.4
Original source form/Name        : CFDV023

Video
ID                               : 0
Format                           : AVC
Format/Info                      : Advanced Video Codec
Codec ID                         : H264
Duration                         : 1h 30mn
Bit rate                         : 800 Kbps
Width                            : 720 pixels
Height                           : 300 pixels
Display aspect ratio             : 2.40:1
Frame rate                       : 25.000 fps
Color space                      : YUV
Chroma subsampling               : 4:2:0
Bits/(Pixel*Frame)               : 0.148
Stream size                      : 520 MiB (77%)

Audio
ID                               : 1
Format                           : AC-3
Format/Info                      : Audio Coding 3
Mode extension                   : CM (complete main)
Codec ID                         : 2000
Duration                         : 1h 30mn
Bit rate mode                    : Constant
Bit rate                         : 224 Kbps
Channel(s)                       : 2 channels
Channel positions                : Front: L R
Sampling rate                    : 48.0 KHz
Bit depth                        : 16 bits
Compression mode                 : Lossy
Stream size                      : 146 MiB (22%)
Alignment                        : Aligned on interleaves
Interleave, duration             : 32 ms (0.80 video frame)
Interleave, preload duration     : 32 ms"
,curbgod666,2011-07-11T23:57Z,Does anyone know if there is an English spoken version?
